<svg id="Layer_1" data-name="Layer 1" xmlns="http://www.w3.org/2000/svg" viewBox="0 0 340.83 71.22"><defs><style>.cls-1{fill:#0150f5;}.cls-2{fill:#00409e;}.cls-3{fill:#00b6ed;}.cls-4{fill:#5be3f3;}</style></defs><path class="cls-1" d="M85.15,19.89H111v7h-8.56V49.33H93.67V26.86H85.15Z"/><path class="cls-1" d="M112.92,19.89h8.48V30a8.13,8.13,0,0,1,7.26-3.86c4.92,0,8.23,3.4,8.23,8.69V49.33h-8.48v-12c0-2.27-1.26-3.7-3.27-3.7-2.31,0-3.74,1.85-3.74,4.45v11.3h-8.48Z"/><path class="cls-1" d="M151.67,26.19c8,0,12.39,5.38,11.89,13.77H148.19a4.43,4.43,0,0,0,4.45,3.4,7.46,7.46,0,0,0,5-2.18l4.41,4.33a13.21,13.21,0,0,1-10.17,4.11c-7.64,0-12.3-4.62-12.3-11.63S144.45,26.19,151.67,26.19Zm3.53,9.62c0-2.27-1.39-3.87-3.44-3.87s-3.32,1.56-3.74,3.87Z"/><path class="cls-1" d="M166.48,26.49H175V30a7.94,7.94,0,0,1,7.09-3.82,7.69,7.69,0,0,1,7.52,5,8.07,8.07,0,0,1,7.72-5c4.83,0,8.11,3.4,8.11,8.69V49.33h-8.48v-12c0-2.27-1.26-3.7-3.15-3.7-2.19,0-3.57,1.85-3.57,4.45v11.3h-8.48v-12c0-2.27-1.26-3.7-3.15-3.7-2.23,0-3.61,1.85-3.61,4.45v11.3h-8.49Z"/><path class="cls-1" d="M220.19,26.19c8,0,12.39,5.38,11.88,13.77H216.71a4.42,4.42,0,0,0,4.45,3.4,7.45,7.45,0,0,0,5-2.18l4.41,4.33a13.17,13.17,0,0,1-10.16,4.11c-7.64,0-12.3-4.62-12.3-11.63S213,26.19,220.19,26.19Zm3.53,9.62c0-2.27-1.39-3.87-3.45-3.87s-3.31,1.56-3.73,3.87Z"/><path class="cls-1" d="M237.36,19.93h18.69v3.24H240.72V33.5h13.73v3.23H240.72v12.6h-3.36Z"/><path class="cls-1" d="M259.49,19.93h3.27v29.4h-3.27Z"/><path class="cls-1" d="M271.28,19.86a2.15,2.15,0,0,1,2.14,2.26,2.14,2.14,0,1,1-4.28,0A2.15,2.15,0,0,1,271.28,19.86Z"/><rect class="cls-1" x="269.68" y="27.2" width="3.23" height="22.13"/><path class="cls-1" d="M288.66,27.07a8.84,8.84,0,0,1,8.23,4.62V27.2h3.28V47c0,6.46-4.41,10.54-11.13,10.54A14.93,14.93,0,0,1,280,54.37l1.51-2.52a11.39,11.39,0,0,0,7.44,2.81c4.82,0,8-2.94,8-7.56V43.74a8.71,8.71,0,0,1-8.14,4.62c-6,0-10.08-4.41-10.08-10.71S282.74,27.11,288.66,27.07Zm.67,18.52c4.41,0,7.56-3.28,7.56-7.81s-3.15-7.85-7.56-7.85-7.55,3.27-7.59,7.85S284.88,45.59,289.33,45.59Z"/><path class="cls-1" d="M305.28,19.93h3.27V32.15c1.51-3.44,4.54-5,8.61-5.08,5.29,0,8.4,3.28,8.4,8.61V49.33h-3.28V36.56c0-3.9-2.35-6.21-6.25-6.21-4.71,0-7.48,3.36-7.48,8.1V49.33h-3.27Z"/><path class="cls-1" d="M327.94,27.91h3.19v-8h3.23v8l7,0v2.69h-7V42.61c0,2.69,1.05,3.69,2.94,3.69a6.65,6.65,0,0,0,3.53-1.13l.92,2.65a9.29,9.29,0,0,1-5,1.68c-3.24,0-5.63-1.94-5.63-6.3V30.56h-3.19Z"/><path class="cls-1" d="M24.85,46.37l-24-24a2.78,2.78,0,0,1,1.25-4.66l32.82-8.8L67.71.1a2.78,2.78,0,0,1,3.41,3.41L62.33,36.33l-8.8,32.82a2.78,2.78,0,0,1-4.66,1.25Z"/><polygon class="cls-2" points="35.17 56.7 17.1 54.12 24.84 46.38 35.17 56.7"/><polygon class="cls-3" points="14.52 36.05 17.1 54.12 24.84 46.38 14.52 36.05"/><polygon class="cls-4" points="14.52 36.05 48.95 22.27 24.84 46.38 14.52 36.05"/><polygon class="cls-2" points="35.17 56.7 48.95 22.27 24.84 46.38 35.17 56.7"/></svg>